<mxfile host="app.diagrams.net" modified="2021-11-21T12:33:38.025Z" agent="5.0 (Windows NT 10.0; Win64; x64) AppleWebKit/537.36 (KHTML, like Gecko) Chrome/96.0.4664.45 Safari/537.36 Edg/96.0.1054.29" etag="ZCqMbhLsxAS6ZLorrbFX" version="15.8.3" type="github">
  <diagram id="tk-gn8nS5ALjPq-0fQJN" name="Page-1">
    <mxGraphModel dx="2249" dy="794" grid="1" gridSize="10" guides="1" tooltips="1" connect="1" arrows="1" fold="1" page="1" pageScale="1" pageWidth="827" pageHeight="1169" math="0" shadow="0">
      <root>
        <mxCell id="0" />
        <mxCell id="1" parent="0" />
        <mxCell id="lzGWsXNczHOUnscZ2XJF-3" value="" style="edgeStyle=orthogonalEdgeStyle;rounded=0;orthogonalLoop=1;jettySize=auto;html=1;fontSize=15;" edge="1" parent="1" source="lzGWsXNczHOUnscZ2XJF-1" target="lzGWsXNczHOUnscZ2XJF-2">
          <mxGeometry relative="1" as="geometry" />
        </mxCell>
        <mxCell id="lzGWsXNczHOUnscZ2XJF-1" value="生成prepare脚本" style="rounded=0;whiteSpace=wrap;html=1;fontSize=15;" vertex="1" parent="1">
          <mxGeometry x="-10" y="220" width="120" height="60" as="geometry" />
        </mxCell>
        <mxCell id="lzGWsXNczHOUnscZ2XJF-5" value="" style="edgeStyle=orthogonalEdgeStyle;rounded=0;orthogonalLoop=1;jettySize=auto;html=1;fontSize=15;" edge="1" parent="1" source="lzGWsXNczHOUnscZ2XJF-2" target="lzGWsXNczHOUnscZ2XJF-4">
          <mxGeometry relative="1" as="geometry" />
        </mxCell>
        <mxCell id="lzGWsXNczHOUnscZ2XJF-2" value="生成action脚本" style="rounded=0;whiteSpace=wrap;html=1;fontSize=15;" vertex="1" parent="1">
          <mxGeometry x="140" y="220" width="120" height="60" as="geometry" />
        </mxCell>
        <mxCell id="lzGWsXNczHOUnscZ2XJF-9" value="" style="edgeStyle=orthogonalEdgeStyle;rounded=0;orthogonalLoop=1;jettySize=auto;html=1;fontSize=15;exitX=1;exitY=0.5;exitDx=0;exitDy=0;" edge="1" parent="1" source="lzGWsXNczHOUnscZ2XJF-4" target="lzGWsXNczHOUnscZ2XJF-8">
          <mxGeometry relative="1" as="geometry" />
        </mxCell>
        <mxCell id="lzGWsXNczHOUnscZ2XJF-4" value="生成post脚本" style="rounded=0;whiteSpace=wrap;html=1;fontSize=15;" vertex="1" parent="1">
          <mxGeometry x="293.5" y="220" width="120" height="60" as="geometry" />
        </mxCell>
        <mxCell id="lzGWsXNczHOUnscZ2XJF-14" value="" style="edgeStyle=orthogonalEdgeStyle;rounded=0;orthogonalLoop=1;jettySize=auto;html=1;fontSize=15;" edge="1" parent="1" source="lzGWsXNczHOUnscZ2XJF-6" target="lzGWsXNczHOUnscZ2XJF-1">
          <mxGeometry relative="1" as="geometry" />
        </mxCell>
        <mxCell id="lzGWsXNczHOUnscZ2XJF-6" value="开始" style="ellipse;whiteSpace=wrap;html=1;rounded=0;fontSize=15;" vertex="1" parent="1">
          <mxGeometry x="-160" y="220" width="120" height="60" as="geometry" />
        </mxCell>
        <mxCell id="lzGWsXNczHOUnscZ2XJF-11" value="" style="edgeStyle=orthogonalEdgeStyle;rounded=0;orthogonalLoop=1;jettySize=auto;html=1;fontSize=15;" edge="1" parent="1" source="lzGWsXNczHOUnscZ2XJF-8" target="lzGWsXNczHOUnscZ2XJF-10">
          <mxGeometry relative="1" as="geometry" />
        </mxCell>
        <mxCell id="lzGWsXNczHOUnscZ2XJF-8" value="裁剪升级包" style="rounded=0;whiteSpace=wrap;html=1;fontSize=15;" vertex="1" parent="1">
          <mxGeometry x="-146" y="340" width="120" height="60" as="geometry" />
        </mxCell>
        <mxCell id="lzGWsXNczHOUnscZ2XJF-13" value="" style="edgeStyle=orthogonalEdgeStyle;rounded=0;orthogonalLoop=1;jettySize=auto;html=1;fontSize=15;" edge="1" parent="1" source="lzGWsXNczHOUnscZ2XJF-10" target="lzGWsXNczHOUnscZ2XJF-12">
          <mxGeometry relative="1" as="geometry" />
        </mxCell>
        <mxCell id="lzGWsXNczHOUnscZ2XJF-10" value="加密签名" style="rounded=0;whiteSpace=wrap;html=1;fontSize=15;" vertex="1" parent="1">
          <mxGeometry x="4" y="340" width="120" height="60" as="geometry" />
        </mxCell>
        <mxCell id="lzGWsXNczHOUnscZ2XJF-12" value="结束" style="ellipse;whiteSpace=wrap;html=1;rounded=0;fontSize=15;" vertex="1" parent="1">
          <mxGeometry x="294" y="340" width="120" height="60" as="geometry" />
        </mxCell>
        <mxCell id="lzGWsXNczHOUnscZ2XJF-15" value="打包压缩" style="rounded=0;whiteSpace=wrap;html=1;fontSize=15;" vertex="1" parent="1">
          <mxGeometry x="154" y="340" width="120" height="60" as="geometry" />
        </mxCell>
      </root>
    </mxGraphModel>
  </diagram>
</mxfile>
